<svg xmlns="http://www.w3.org/2000/svg" viewBox="80 20 60 60" stroke="black" fill="none" stroke-width="3">

  <!-- Dark box -->
  <rect x="80" y="20" width="60" height="60" fill="black" stroke="none"/>

  <!-- Aperture gap (cut in the left wall) -->
  <line x1="80" y1="20" x2="80" y2="42" stroke="black" stroke-width="3"/>
  <line x1="80" y1="58" x2="80" y2="80" stroke="black" stroke-width="3"/>
  <rect x="80" y="42" width="3" height="16" fill="white" stroke="none"/>

  <!-- Light cone inside -->
  <polygon points="80,44 140,22 140,78 80,56" fill="#777" stroke="none"/>

  <!-- Nautilus cross-section (thinner lines for detail) -->
  <g transform="translate(121.90,53.94) scale(0.1894)">
    <path d="M2.7,-0.0 L2.7,-0.1 L2.8,-0.2 L2.8,-0.3 L2.8,-0.5 L2.8,-0.6 L2.8,-0.7 L2.8,-0.8 L2.7,-0.9 L2.7,-1.0 L2.7,-1.2 L2.7,-1.3 L2.6,-1.4 L2.6,-1.5 L2.5,-1.6 L2.5,-1.7 L2.4,-1.9 L2.4,-2.0 L2.3,-2.1 L2.2,-2.2 L2.2,-2.3 L2.1,-2.4 L2.0,-2.5 L1.9,-2.6 L1.8,-2.7 L1.7,-2.8 L1.6,-2.9 L1.5,-3.0 L1.4,-3.0 L1.3,-3.1 L1.1,-3.2 L1.0,-3.3 L0.9,-3.3 L0.8,-3.4 L0.6,-3.4 L0.5,-3.5 L0.4,-3.5 L0.2,-3.6 L0.1,-3.6 L-0.1,-3.6 L-0.2,-3.6 L-0.4,-3.6 L-0.5,-3.7 L-0.7,-3.7 L-0.8,-3.7 L-1.0,-3.6 L-1.2,-3.6 L-1.3,-3.6 L-1.5,-3.6 L-1.6,-3.5 L-1.8,-3.5 L-1.9,-3.4 L-2.1,-3.4 L-2.2,-3.3 L-2.4,-3.2 L-2.5,-3.2 L-2.7,-3.1 L-2.8,-3.0 L-3.0,-2.9 L-3.1,-2.8 L-3.2,-2.7 L-3.4,-2.6 L-3.5,-2.4 L-3.6,-2.3 L-3.7,-2.2 L-3.9,-2.0 L-4.0,-1.9 L-4.1,-1.7 L-4.2,-1.6 L-4.3,-1.4 L-4.3,-1.3 L-4.4,-1.1 L-4.5,-0.9 L-4.6,-0.7 L-4.6,-0.6 L-4.7,-0.4 L-4.7,-0.2 L-4.8,0.0 L-4.8,0.2 L-4.8,0.4 L-4.8,0.6 L-4.8,0.8 L-4.8,1.0 L-4.8,1.2 L-4.8,1.4 L-4.8,1.6 L-4.7,1.8 L-4.7,2.0 L-4.6,2.2 L-4.6,2.5 L-4.5,2.7 L-4.4,2.9 L-4.3,3.1 L-4.2,3.3 L-4.1,3.5 L-4.0,3.6 L-3.9,3.8 L-3.7,4.0 L-3.6,4.2 L-3.5,4.4 L-3.3,4.5 L-3.1,4.7 L-3.0,4.9 L-2.8,5.0 L-2.6,5.2 L-2.4,5.3 L-2.2,5.4 L-2.0,5.6 L-1.8,5.7 L-1.5,5.8 L-1.3,5.9 L-1.1,6.0 L-0.8,6.1 L-0.6,6.1 L-0.4,6.2 L-0.1,6.2 L0.2,6.3 L0.4,6.3 L0.7,6.4 L0.9,6.4 L1.2,6.4 L1.5,6.4 L1.8,6.3 L2.0,6.3 L2.3,6.3 L2.6,6.2 L2.8,6.1 L3.1,6.1 L3.4,6.0 L3.6,5.9 L3.9,5.8 L4.2,5.6 L4.4,5.5 L4.7,5.4 L4.9,5.2 L5.2,5.0 L5.4,4.8 L5.7,4.7 L5.9,4.4 L6.1,4.2 L6.3,4.0 L6.5,3.8 L6.7,3.5 L6.9,3.3 L7.1,3.0 L7.3,2.7 L7.4,2.5 L7.6,2.2 L7.7,1.9 L7.8,1.6 L7.9,1.3 L8.0,0.9 L8.1,0.6 L8.2,0.3 L8.3,-0.1 L8.3,-0.4 L8.4,-0.7 L8.4,-1.1 L8.4,-1.4 L8.4,-1.8 L8.4,-2.1 L8.3,-2.5 L8.3,-2.9 L8.2,-3.2 L8.1,-3.6 L8.0,-3.9 L7.9,-4.3 L7.8,-4.7 L7.7,-5.0 L7.5,-5.3 L7.3,-5.7 L7.2,-6.0 L6.9,-6.4 L6.7,-6.7 L6.5,-7.0 L6.3,-7.3 L6.0,-7.6 L5.7,-7.9 L5.4,-8.2 L5.1,-8.5 L4.8,-8.7 L4.5,-9.0 L4.1,-9.2 L3.8,-9.5 L3.4,-9.7 L3.0,-9.9 L2.7,-10.1 L2.3,-10.3 L1.9,-10.4 L1.4,-10.6 L1.0,-10.7 L0.6,-10.8 L0.1,-10.9 L-0.3,-11.0 L-0.8,-11.0 L-1.2,-11.1 L-1.7,-11.1 L-2.1,-11.1 L-2.6,-11.1 L-3.1,-11.0 L-3.6,-11.0 L-4.0,-10.9 L-4.5,-10.8 L-5.0,-10.7 L-5.5,-10.5 L-5.9,-10.4 L-6.4,-10.2 L-6.8,-10.0 L-7.3,-9.8 L-7.8,-9.6 L-8.2,-9.3 L-8.6,-9.0 L-9.1,-8.7 L-9.5,-8.4 L-9.9,-8.1 L-10.3,-7.7 L-10.7,-7.3 L-11.0,-6.9 L-11.4,-6.5 L-11.7,-6.1 L-12.0,-5.7 L-12.4,-5.2 L-12.6,-4.7 L-12.9,-4.2 L-13.2,-3.7 L-13.4,-3.2 L-13.6,-2.7 L-13.8,-2.1 L-14.0,-1.6 L-14.2,-1.0 L-14.3,-0.4 L-14.4,0.1 L-14.5,0.7 L-14.6,1.3 L-14.6,1.9 L-14.6,2.6 L-14.6,3.2 L-14.6,3.8 L-14.5,4.4 L-14.4,5.0 L-14.3,5.7 L-14.2,6.3 L-14.0,6.9 L-13.8,7.5 L-13.6,8.1 L-13.3,8.8 L-13.0,9.4 L-12.7,10.0 L-12.4,10.5 L-12.1,11.1 L-11.7,11.7 L-11.3,12.2 L-10.8,12.8 L-10.4,13.3 L-9.9,13.8 L-9.4,14.3 L-8.9,14.8 L-8.3,15.3 L-7.8,15.7 L-7.2,16.1 L-6.5,16.5 L-5.9,16.9 L-5.2,17.2 L-4.6,17.6 L-3.9,17.9 L-3.2,18.1 L-2.4,18.4 L-1.7,18.6 L-0.9,18.8 L-0.2,18.9 L0.6,19.1 L1.4,19.2 L2.2,19.2 L3.0,19.3 L3.8,19.3 L4.6,19.2 L5.4,19.2 L6.3,19.1 L7.1,18.9 L7.9,18.8 L8.7,18.6 L9.6,18.3 L10.4,18.0 L11.2,17.7 L12.0,17.4 L12.8,17.0 L13.5,16.6 L14.3,16.1 L15.1,15.6 L15.8,15.1 L16.5,14.6 L17.2,14.0 L17.9,13.4 L18.6,12.7 L19.2,12.0 L19.8,11.3 L20.4,10.6 L21.0,9.8 L21.5,9.0 L22.1,8.2 L22.5,7.3 L23.0,6.4 L23.4,5.5 L23.8,4.6 L24.1,3.7 L24.4,2.7 L24.7,1.7 L24.9,0.7 L25.1,-0.3 L25.2,-1.3 L25.3,-2.4 L25.4,-3.5 L25.4,-4.5 L25.4,-5.6 L25.3,-6.7 L25.2,-7.8 L25.1,-8.8 L24.9,-9.9 L24.6,-11.0 L24.3,-12.1 L24.0,-13.2 L23.6,-14.2 L23.1,-15.3 L22.7,-16.4 L22.1,-17.4 L21.6,-18.4 L20.9,-19.4 L20.3,-20.4 L19.6,-21.4 L18.8,-22.3 L18.0,-23.2 L17.2,-24.1 L16.3,-25.0 L15.4,-25.8 L14.4,-26.6 L13.4,-27.4 L12.4,-28.1 L11.3,-28.8 L10.2,-29.4 L9.0,-30.0 L7.9,-30.6 L6.6,-31.1 L5.4,-31.6 L4.1,-32.0 L2.9,-32.4 L1.5,-32.7 L0.2,-33.0 L-1.1,-33.2 L-2.5,-33.4 L-3.9,-33.5 L-5.3,-33.5 L-6.7,-33.5 L-8.1,-33.5 L-9.6,-33.3 L-11.0,-33.2 L-12.4,-32.9 L-13.9,-32.6 L-15.3,-32.3 L-16.7,-31.8 L-18.1,-31.4 L-19.6,-30.8 L-20.9,-30.2 L-22.3,-29.5 L-23.7,-28.8 L-25.0,-28.0 L-26.3,-27.2 L-27.6,-26.3 L-28.9,-25.3 L-30.1,-24.3 L-31.3,-23.2 L-32.4,-22.0 L-33.5,-20.8 L-34.6,-19.6 L-35.6,-18.3 L-36.6,-17.0 L-37.6,-15.6 L-38.4,-14.1 L-39.3,-12.6 L-40.0,-11.1 L-40.7,-9.5 L-41.4,-7.9 L-42.0,-6.2 L-42.5,-4.6 L-43.0,-2.8 L-43.4,-1.1 L-43.7,0.7 L-43.9,2.5 L-44.1,4.3 L-44.2,6.2 L-44.2,8.0 L-44.2,9.9 L-44.1,11.8 L-43.9,13.6 L-43.6,15.5 L-43.2,17.4 L-42.8,19.3 L-42.3,21.2 L-41.7,23.1 L-41.0,24.9 L-40.2,26.8 L-39.4,28.6 L-38.4,30.4 L-37.4,32.2 L-36.4,33.9 L-35.2,35.6 L-34.0,37.3 L-32.6,39.0 L-31.2,40.5 L-29.8,42.1 L-28.2,43.6 L-26.6,45.0 L-24.9,46.4 L-23.2,47.7 L-21.4,49.0 L-19.5,50.2 L-17.6,51.3 L-15.6,52.3 L-13.5,53.3 L-11.4,54.2 L-9.2,55.0 L-7.0,55.8 L-4.8,56.4 L-2.5,57.0 L-0.2,57.4 L2.2,57.8 L4.6,58.1 L7.0,58.3 L9.4,58.4 L11.9,58.3 L14.4,58.2 L16.9,58.0 L19.3,57.7 L21.8,57.3 L24.3,56.7 L26.8,56.1 L29.3,55.3 L31.8,54.5 L34.2,53.5 L36.6,52.5 L39.0,51.3 L41.4,50.0 L43.7,48.6 L46.0,47.1 L48.2,45.6 L50.4,43.9 L52.5,42.1 L54.6,40.2 L56.6,38.2 L58.5,36.1 L60.4,33.9 L62.2,31.7 L63.9,29.3 L65.5,26.9 L67.0,24.4 L68.4,21.8 L69.8,19.1 L71.0,16.3 L72.1,13.5 L73.1,10.6 L74.0,7.7 L74.8,4.7 L75.5,1.7 L76.0,-1.4 L76.5,-4.6 L76.8,-7.7 L76.9,-11.0 L77.0,-14.2 L76.9,-17.4 L76.7,-20.7 L76.3,-24.0 L75.8,-27.3 L75.2,-30.6 L74.4,-33.9 L73.5,-37.1 L72.4,-40.4 L71.2,-43.6 L69.9,-46.8 L68.4,-50.0 L66.8,-53.2 L65.0,-56.2 L63.1,-59.3 L61.1,-62.2 L58.9,-65.2 L56.6,-68.0 L54.2,-70.8 L51.6,-73.4 L48.9,-76.0 L46.1,-78.5 L43.2,-80.9 L40.1,-83.2 L37.0,-85.4 L33.7,-87.5 L30.3,-89.4 L26.8,-91.2 L23.2,-92.9 L19.6,-94.5 L15.8,-95.9 L12.0,-97.1 L8.0,-98.2 L4.1,-99.2 L-0.0,-100.0" stroke="white" fill="none" stroke-width="6.0" stroke-linecap="round"/>
    <path d="M-0.0,-100.0 L-1.0,-97.8 L-1.9,-95.5 L-2.8,-93.3 L-3.6,-91.0 L-4.4,-88.7 L-5.2,-86.4 L-5.9,-84.2 L-6.6,-81.9 L-7.2,-79.6 L-7.8,-77.3 L-8.3,-75.0 L-8.8,-72.7 L-9.2,-70.4 L-9.6,-68.1 L-9.9,-65.8 L-10.2,-63.5 L-10.5,-61.2 L-10.7,-58.8 L-10.9,-56.5 L-11.0,-54.2 L-11.1,-52.0 L-11.1,-49.7 L-11.1,-47.4 L-11.0,-45.1 L-10.9,-42.8 L-10.8,-40.5 L-10.6,-38.3 L-10.4,-36.0 L-10.1,-33.8 L-9.8,-31.6" stroke="white" fill="none" stroke-width="5.0" stroke-linecap="round" opacity="0.7"/>
    <path d="M2.6,-1.4 Q4.7,-2.6 7.9,-4.3 M0.1,-3.6 Q0.2,-6.5 0.3,-10.9 M-3.7,-2.2 Q-6.7,-4.1 -11.2,-6.8 M-4.6,2.5 Q-8.3,4.5 -13.8,7.5 M-0.1,6.2 Q-0.3,11.3 -0.4,18.9 M6.4,3.9 Q11.6,7.1 19.4,11.8 M7.9,-4.3 Q14.4,-7.8 24.0,-13.1 M0.3,-10.9 Q0.5,-19.7 0.8,-32.9 M-11.2,-6.8 Q-20.2,-12.3 -33.8,-20.6 M-13.8,7.5 Q-25.0,13.7 -41.8,22.8 M-0.4,18.9 Q-0.8,34.2 -1.4,57.2 M19.4,11.8 Q35.2,21.4 58.8,35.8 M24.0,-13.1 Q43.5,-23.8 72.7,-39.7" stroke="white" fill="none" stroke-width="3.0" stroke-linecap="round" opacity="0.5"/>
  </g>

</svg>
